<svg version="1.1" xmlns="http://www.w3.org/2000/svg" viewBox="0 0 1380 820" width="1380" height="820"><!-- svg-source:excalidraw --><metadata/><defs><style class="style-fonts">
      </style></defs><rect x="0" y="0" width="1380" height="820" fill="#0f172a"/><g stroke-linecap="round" transform="translate(10 10) rotate(0 680 400)"><path d="M32 0 C443.97 0, 855.94 0, 1328 0 C1349.33 0, 1360 10.67, 1360 32 C1360 223.78, 1360 415.56, 1360 768 C1360 789.33, 1349.33 800, 1328 800 C1012.63 800, 697.25 800, 32 800 C10.67 800, 0 789.33, 0 768 C0 615, 0 461.99, 0 32 C0 10.67, 10.67 0, 32 0" stroke="none" stroke-width="0" fill="#0f172a"/><path d="M32 0 C440.5 0, 849 0, 1328 0 M32 0 C454.52 0, 877.04 0, 1328 0 M1328 0 C1349.33 0, 1360 10.67, 1360 32 M1328 0 C1349.33 0, 1360 10.67, 1360 32 M1360 32 C1360 306.08, 1360 580.15, 1360 768 M1360 32 C1360 306.54, 1360 581.08, 1360 768 M1360 768 C1360 789.33, 1349.33 800, 1328 800 M1360 768 C1360 789.33, 1349.33 800, 1328 800 M1328 800 C861.17 800, 394.35 800, 32 800 M1328 800 C918.65 800, 509.3 800, 32 800 M32 800 C10.67 800, 0 789.33, 0 768 M32 800 C10.67 800, 0 789.33, 0 768 M0 768 C0 541.58, 0 315.16, 0 32 M0 768 C0 607.45, 0 446.9, 0 32 M0 32 C0 10.67, 10.67 0, 32 0 M0 32 C0 10.67, 10.67 0, 32 0" stroke="#0f172a" stroke-width="1" fill="none"/></g><g stroke-linecap="round" transform="translate(55 170) rotate(0 150 105)"><path d="M32 0 C79.22 0, 126.44 0, 268 0 C289.33 0, 300 10.67, 300 32 C300 84.37, 300 136.75, 300 178 C300 199.33, 289.33 210, 268 210 C201.53 210, 135.07 210, 32 210 C10.67 210, 0 199.33, 0 178 C0 122.83, 0 67.66, 0 32 C0 10.67, 10.67 0, 32 0" stroke="none" stroke-width="0" fill="#1e293b"/><path d="M32 0 C103.9 0, 175.8 0, 268 0 M32 0 C125.03 0, 218.05 0, 268 0 M268 0 C289.33 0, 300 10.67, 300 32 M268 0 C289.33 0, 300 10.67, 300 32 M300 32 C300 74.87, 300 117.73, 300 178 M300 32 C300 63.23, 300 94.47, 300 178 M300 178 C300 199.33, 289.33 210, 268 210 M300 178 C300 199.33, 289.33 210, 268 210 M268 210 C207.21 210, 146.43 210, 32 210 M268 210 C189.56 210, 111.12 210, 32 210 M32 210 C10.67 210, 0 199.33, 0 178 M32 210 C10.67 210, 0 199.33, 0 178 M0 178 C0 139.22, 0 100.44, 0 32 M0 178 C0 131.41, 0 84.81, 0 32 M0 32 C0 10.67, 10.67 0, 32 0 M0 32 C0 10.67, 10.67 0, 32 0" stroke="#fac515" stroke-width="2" fill="none"/></g><g stroke-linecap="round" transform="translate(55 500) rotate(0 150 77.5)"><path d="M32 0 C117.66 0, 203.33 0, 268 0 C289.33 0, 300 10.67, 300 32 C300 58.98, 300 85.95, 300 123 C300 144.33, 289.33 155, 268 155 C207.05 155, 146.09 155, 32 155 C10.67 155, 0 144.33, 0 123 C0 90.82, 0 58.64, 0 32 C0 10.67, 10.67 0, 32 0" stroke="none" stroke-width="0" fill="#1e293b"/><path d="M32 0 C93.3 0, 154.61 0, 268 0 M32 0 C109.49 0, 186.97 0, 268 0 M268 0 C289.33 0, 300 10.67, 300 32 M268 0 C289.33 0, 300 10.67, 300 32 M300 32 C300 67.54, 300 103.09, 300 123 M300 32 C300 54.6, 300 77.19, 300 123 M300 123 C300 144.33, 289.33 155, 268 155 M300 123 C300 144.33, 289.33 155, 268 155 M268 155 C204.96 155, 141.93 155, 32 155 M268 155 C202.67 155, 137.35 155, 32 155 M32 155 C10.67 155, 0 144.33, 0 123 M32 155 C10.67 155, 0 144.33, 0 123 M0 123 C0 101.07, 0 79.15, 0 32 M0 123 C0 87.3, 0 51.61, 0 32 M0 32 C0 10.67, 10.67 0, 32 0 M0 32 C0 10.67, 10.67 0, 32 0" stroke="#38bdf8" stroke-width="2" fill="none"/></g><g stroke-linecap="round" transform="translate(405 500) rotate(0 150 77.5)"><path d="M32 0 C94.85 0, 157.7 0, 268 0 C289.33 0, 300 10.67, 300 32 C300 50.48, 300 68.96, 300 123 C300 144.33, 289.33 155, 268 155 C193.22 155, 118.44 155, 32 155 C10.67 155, 0 144.33, 0 123 C0 99.4, 0 75.8, 0 32 C0 10.67, 10.67 0, 32 0" stroke="none" stroke-width="0" fill="#1e293b"/><path d="M32 0 C80.97 0, 129.95 0, 268 0 M32 0 C97.15 0, 162.29 0, 268 0 M268 0 C289.33 0, 300 10.67, 300 32 M268 0 C289.33 0, 300 10.67, 300 32 M300 32 C300 60.22, 300 88.44, 300 123 M300 32 C300 51.21, 300 70.42, 300 123 M300 123 C300 144.33, 289.33 155, 268 155 M300 123 C300 144.33, 289.33 155, 268 155 M268 155 C193.25 155, 118.49 155, 32 155 M268 155 C201.48 155, 134.97 155, 32 155 M32 155 C10.67 155, 0 144.33, 0 123 M32 155 C10.67 155, 0 144.33, 0 123 M0 123 C0 101.48, 0 79.97, 0 32 M0 123 C0 97.48, 0 71.95, 0 32 M0 32 C0 10.67, 10.67 0, 32 0 M0 32 C0 10.67, 10.67 0, 32 0" stroke="#e24328" stroke-width="2" fill="none"/></g><g stroke-linecap="round" transform="translate(500 190) rotate(0 165 130)"><path d="M32 0 C108.55 0, 185.11 0, 298 0 C319.33 0, 330 10.67, 330 32 C330 107.84, 330 183.69, 330 228 C330 249.33, 319.33 260, 298 260 C217.04 260, 136.08 260, 32 260 C10.67 260, 0 249.33, 0 228 C0 153.93, 0 79.86, 0 32 C0 10.67, 10.67 0, 32 0" stroke="none" stroke-width="0" fill="#1e293b"/><path d="M32 0 C100.61 0, 169.22 0, 298 0 M32 0 C116.71 0, 201.41 0, 298 0 M298 0 C319.33 0, 330 10.67, 330 32 M298 0 C319.33 0, 330 10.67, 330 32 M330 32 C330 89.22, 330 146.45, 330 228 M330 32 C330 74.15, 330 116.3, 330 228 M330 228 C330 249.33, 319.33 260, 298 260 M330 228 C330 249.33, 319.33 260, 298 260 M298 260 C203.65 260, 109.29 260, 32 260 M298 260 C224.22 260, 150.44 260, 32 260 M32 260 C10.67 260, 0 249.33, 0 228 M32 260 C10.67 260, 0 249.33, 0 228 M0 228 C0 150.48, 0 72.97, 0 32 M0 228 C0 164.56, 0 101.12, 0 32 M0 32 C0 10.67, 10.67 0, 32 0 M0 32 C0 10.67, 10.67 0, 32 0" stroke="#6172f3" stroke-width="2" fill="none"/></g><g stroke-linecap="round" transform="translate(965 190) rotate(0 175 105)"><path d="M32 0 C112.15 0, 192.3 0, 318 0 C339.33 0, 350 10.67, 350 32 C350 82.75, 350 133.51, 350 178 C350 199.33, 339.33 210, 318 210 C237.7 210, 157.39 210, 32 210 C10.67 210, 0 199.33, 0 178 C0 128.24, 0 78.49, 0 32 C0 10.67, 10.67 0, 32 0" stroke="none" stroke-width="0" fill="#1e293b"/><path d="M32 0 C97.63 0, 163.27 0, 318 0 M32 0 C131.85 0, 231.7 0, 318 0 M318 0 C339.33 0, 350 10.67, 350 32 M318 0 C339.33 0, 350 10.67, 350 32 M350 32 C350 90.19, 350 148.38, 350 178 M350 32 C350 75.03, 350 118.06, 350 178 M350 178 C350 199.33, 339.33 210, 318 210 M350 178 C350 199.33, 339.33 210, 318 210 M318 210 C226.39 210, 134.78 210, 32 210 M318 210 C209.07 210, 100.13 210, 32 210 M32 210 C10.67 210, 0 199.33, 0 178 M32 210 C10.67 210, 0 199.33, 0 178 M0 178 C0 138.79, 0 99.59, 0 32 M0 178 C0 134.56, 0 91.13, 0 32 M0 32 C0 10.67, 10.67 0, 32 0 M0 32 C0 10.67, 10.67 0, 32 0" stroke="#2ed3ae" stroke-width="2" fill="none"/></g><g stroke-linecap="round" transform="translate(935 520) rotate(0 190 67.5)"><path d="M32 0 C126.72 0, 221.44 0, 348 0 C369.33 0, 380 10.67, 380 32 C380 46.26, 380 60.52, 380 103 C380 124.33, 369.33 135, 348 135 C223.84 135, 99.67 135, 32 135 C10.67 135, 0 124.33, 0 103 C0 79.35, 0 55.69, 0 32 C0 10.67, 10.67 0, 32 0" stroke="none" stroke-width="0" fill="#1e293b"/><path d="M32 0 C143.1 0, 254.19 0, 348 0 M32 0 C96.51 0, 161.02 0, 348 0 M348 0 C369.33 0, 380 10.67, 380 32 M348 0 C369.33 0, 380 10.67, 380 32 M380 32 C380 47.78, 380 63.56, 380 103 M380 32 C380 47.24, 380 62.47, 380 103 M380 103 C380 124.33, 369.33 135, 348 135 M380 103 C380 124.33, 369.33 135, 348 135 M348 135 C253.93 135, 159.86 135, 32 135 M348 135 C263.47 135, 178.95 135, 32 135 M32 135 C10.67 135, 0 124.33, 0 103 M32 135 C10.67 135, 0 124.33, 0 103 M0 103 C0 74.61, 0 46.23, 0 32 M0 103 C0 78.44, 0 53.87, 0 32 M0 32 C0 10.67, 10.67 0, 32 0 M0 32 C0 10.67, 10.67 0, 32 0" stroke="#f472b6" stroke-width="2" fill="none"/></g><g stroke-linecap="round"><g transform="translate(363.4619928053482 290.95280364400145) rotate(0 64.03800719465181 5.813500703824644)"><path d="M0 0 C41.76 3.79, 83.51 7.58, 128.08 11.63 M0 0 C32.29 2.93, 64.58 5.86, 128.08 11.63" stroke="#fac515" stroke-width="2" fill="none"/></g><g transform="translate(363.4619928053482 290.95280364400145) rotate(0 64.03800719465181 5.813500703824644)"><path d="M103.91 18.02 C111.79 15.93, 119.67 13.85, 128.08 11.63 M103.91 18.02 C110 16.41, 116.09 14.8, 128.08 11.63" stroke="#fac515" stroke-width="2" fill="none"/></g><g transform="translate(363.4619928053482 290.95280364400145) rotate(0 64.03800719465181 5.813500703824644)"><path d="M105.45 0.99 C112.83 4.46, 120.2 7.92, 128.08 11.63 M105.45 0.99 C111.16 3.67, 116.86 6.35, 128.08 11.63" stroke="#fac515" stroke-width="2" fill="none"/></g></g><mask/><g stroke-linecap="round"><g transform="translate(350.9272969162951 495.59232835663914) rotate(0 70.79600405457867 -39.41026313924783)"><path d="M0 0 C55.81 -31.07, 111.63 -62.14, 141.59 -78.82 M0 0 C41.63 -23.17, 83.25 -46.34, 141.59 -78.82" stroke="#38bdf8" stroke-width="2" fill="none"/></g><g transform="translate(350.9272969162951 495.59232835663914) rotate(0 70.79600405457867 -39.41026313924783)"><path d="M125.22 -59.92 C131.68 -67.37, 138.13 -74.82, 141.59 -78.82 M125.22 -59.92 C130.04 -65.48, 134.85 -71.03, 141.59 -78.82" stroke="#38bdf8" stroke-width="2" fill="none"/></g><g transform="translate(350.9272969162951 495.59232835663914) rotate(0 70.79600405457867 -39.41026313924783)"><path d="M116.91 -74.87 C126.64 -76.42, 136.37 -77.98, 141.59 -78.82 M116.91 -74.87 C124.16 -76.03, 131.42 -77.19, 141.59 -78.82" stroke="#38bdf8" stroke-width="2" fill="none"/></g></g><mask/><g stroke-linecap="round"><g transform="translate(591.7495279935279 492.1431503787869) rotate(0 7.036879773462431 -17.143150378786913)"><path d="M0 0 C4.62 -11.26, 9.24 -22.51, 14.07 -34.29 M0 0 C4.72 -11.5, 9.44 -23, 14.07 -34.29" stroke="#e24328" stroke-width="2" fill="none"/></g><g transform="translate(591.7495279935279 492.1431503787869) rotate(0 7.036879773462431 -17.143150378786913)"><path d="M13.32 -15.77 C13.57 -21.85, 13.82 -27.93, 14.07 -34.29 M13.32 -15.77 C13.58 -21.98, 13.83 -28.19, 14.07 -34.29" stroke="#e24328" stroke-width="2" fill="none"/></g><g transform="translate(591.7495279935279 492.1431503787869) rotate(0 7.036879773462431 -17.143150378786913)"><path d="M1.6 -20.58 C5.69 -25.08, 9.79 -29.58, 14.07 -34.29 M1.6 -20.58 C5.78 -25.18, 9.97 -29.78, 14.07 -34.29" stroke="#e24328" stroke-width="2" fill="none"/></g></g><mask/><g stroke-linecap="round"><g transform="translate(838.4889426346601 310.3953188087021) rotate(0 59.011057365339866 -2.6321609139652367)"><path d="M0 0 C32.58 -1.45, 65.16 -2.91, 118.02 -5.26 M0 0 C32.14 -1.43, 64.28 -2.87, 118.02 -5.26" stroke="#2ed3ae" stroke-width="2" fill="none"/></g><g transform="translate(838.4889426346601 310.3953188087021) rotate(0 59.011057365339866 -2.6321609139652367)"><path d="M94.93 4.32 C101.31 1.68, 107.68 -0.97, 118.02 -5.26 M94.93 4.32 C101.22 1.71, 107.51 -0.9, 118.02 -5.26" stroke="#2ed3ae" stroke-width="2" fill="none"/></g><g transform="translate(838.4889426346601 310.3953188087021) rotate(0 59.011057365339866 -2.6321609139652367)"><path d="M94.17 -12.76 C100.76 -10.69, 107.34 -8.62, 118.02 -5.26 M94.17 -12.76 C100.67 -10.72, 107.16 -8.68, 118.02 -5.26" stroke="#2ed3ae" stroke-width="2" fill="none"/></g></g><mask/><g stroke-linecap="round"><g transform="translate(837.4156776606342 420.4727038569992) rotate(0 82.04693916179576 47.50283962126164)"><path d="M0 0 C52.26 30.25, 104.51 60.51, 164.09 95.01 M0 0 C46.97 27.2, 93.95 54.39, 164.09 95.01" stroke="#f472b6" stroke-width="2" fill="none"/></g><g transform="translate(837.4156776606342 420.4727038569992) rotate(0 82.04693916179576 47.50283962126164)"><path d="M139.48 90.63 C147.32 92.03, 155.16 93.42, 164.09 95.01 M139.48 90.63 C146.53 91.89, 153.57 93.14, 164.09 95.01" stroke="#f472b6" stroke-width="2" fill="none"/></g><g transform="translate(837.4156776606342 420.4727038569992) rotate(0 82.04693916179576 47.50283962126164)"><path d="M148.05 75.84 C153.16 81.94, 158.27 88.04, 164.09 95.01 M148.05 75.84 C152.64 81.32, 157.23 86.81, 164.09 95.01" stroke="#f472b6" stroke-width="2" fill="none"/></g></g><mask/><g transform="translate(58 46) rotate(0 433.67431640625 19.549999999999997)"><text x="0" y="28.730664062499997" font-family="Helvetica, Segoe UI Emoji" font-size="34px" fill="#f8fafc" text-anchor="start" style="white-space: pre;" direction="ltr" dominant-baseline="alphabetic">AI Gateway separates client access from provider secrets</text></g><g transform="translate(60 98) rotate(0 398.0126953125 11.5)"><text x="0" y="16.900390625" font-family="Helvetica, Segoe UI Emoji" font-size="20px" fill="#cbd5e1" text-anchor="start" style="white-space: pre;" direction="ltr" dominant-baseline="alphabetic">Configure the upstream once; every local or deployed client uses the governed proxy path</text></g><g transform="translate(79 194) rotate(0 125.396484375 13.799999999999997)"><text x="0" y="20.280468749999997" font-family="Helvetica, Segoe UI Emoji" font-size="24px" fill="#f8fafc" text-anchor="start" style="white-space: pre;" direction="ltr" dominant-baseline="alphabetic">Configure LLM provider</text></g><g transform="translate(79 236) rotate(0 95.1357421875 48.30000000000001)"><text x="0" y="17.74541015625" font-family="Helvetica, Segoe UI Emoji" font-size="21px" fill="#cbd5e1" text-anchor="start" style="white-space: pre;" direction="ltr" dominant-baseline="alphabetic">Upstream endpoint</text><text x="0" y="41.895410156249994" font-family="Helvetica, Segoe UI Emoji" font-size="21px" fill="#cbd5e1" text-anchor="start" style="white-space: pre;" direction="ltr" dominant-baseline="alphabetic">Credential reference</text><text x="0" y="66.04541015625" font-family="Helvetica, Segoe UI Emoji" font-size="21px" fill="#cbd5e1" text-anchor="start" style="white-space: pre;" direction="ltr" dominant-baseline="alphabetic">Allowed models</text><text x="0" y="90.19541015624999" font-family="Helvetica, Segoe UI Emoji" font-size="21px" fill="#cbd5e1" text-anchor="start" style="white-space: pre;" direction="ltr" dominant-baseline="alphabetic">Optional guardrail</text></g><g transform="translate(79 524) rotate(0 84.7265625 13.800000000000011)"><text x="0" y="20.280468749999997" font-family="Helvetica, Segoe UI Emoji" font-size="24px" fill="#f8fafc" text-anchor="start" style="white-space: pre;" direction="ltr" dominant-baseline="alphabetic">Local developer</text></g><g transform="translate(79 566) rotate(0 99.806396484375 24.149999999999977)"><text x="0" y="17.74541015625" font-family="Helvetica, Segoe UI Emoji" font-size="21px" fill="#cbd5e1" text-anchor="start" style="white-space: pre;" direction="ltr" dominant-baseline="alphabetic">rpk ai sign-in and</text><text x="0" y="41.895410156249994" font-family="Helvetica, Segoe UI Emoji" font-size="21px" fill="#cbd5e1" text-anchor="start" style="white-space: pre;" direction="ltr" dominant-baseline="alphabetic">selected environment</text></g><g transform="translate(429 524) rotate(0 106.072265625 13.800000000000011)"><text x="0" y="20.280468749999997" font-family="Helvetica, Segoe UI Emoji" font-size="24px" fill="#f8fafc" text-anchor="start" style="white-space: pre;" direction="ltr" dominant-baseline="alphabetic">Application or agent</text></g><g transform="translate(429 566) rotate(0 110.890869140625 24.149999999999977)"><text x="0" y="17.74541015625" font-family="Helvetica, Segoe UI Emoji" font-size="21px" fill="#cbd5e1" text-anchor="start" style="white-space: pre;" direction="ltr" dominant-baseline="alphabetic">OAuth client credentials</text><text x="0" y="41.895410156249994" font-family="Helvetica, Segoe UI Emoji" font-size="21px" fill="#cbd5e1" text-anchor="start" style="white-space: pre;" direction="ltr" dominant-baseline="alphabetic">for deployed workloads</text></g><g transform="translate(524 214) rotate(0 62.02734375 13.799999999999997)"><text x="0" y="20.280468749999997" font-family="Helvetica, Segoe UI Emoji" font-size="24px" fill="#f8fafc" text-anchor="start" style="white-space: pre;" direction="ltr" dominant-baseline="alphabetic">AI Gateway</text></g><g transform="translate(524 256) rotate(0 131.89599609375 48.30000000000001)"><text x="0" y="17.74541015625" font-family="Helvetica, Segoe UI Emoji" font-size="21px" fill="#cbd5e1" text-anchor="start" style="white-space: pre;" direction="ltr" dominant-baseline="alphabetic">Authenticate caller</text><text x="0" y="41.895410156249994" font-family="Helvetica, Segoe UI Emoji" font-size="21px" fill="#cbd5e1" text-anchor="start" style="white-space: pre;" direction="ltr" dominant-baseline="alphabetic">Route native API</text><text x="0" y="66.04541015625" font-family="Helvetica, Segoe UI Emoji" font-size="21px" fill="#cbd5e1" text-anchor="start" style="white-space: pre;" direction="ltr" dominant-baseline="alphabetic">Apply policy and budgets</text><text x="0" y="90.19541015624999" font-family="Helvetica, Segoe UI Emoji" font-size="21px" fill="#cbd5e1" text-anchor="start" style="white-space: pre;" direction="ltr" dominant-baseline="alphabetic">Record tokens, cost, latency</text></g><g transform="translate(989 214) rotate(0 134.71875 13.799999999999997)"><text x="0" y="20.280468749999997" font-family="Helvetica, Segoe UI Emoji" font-size="24px" fill="#f8fafc" text-anchor="start" style="white-space: pre;" direction="ltr" dominant-baseline="alphabetic">Upstream model provider</text></g><g transform="translate(989 256) rotate(0 141.24755859375 36.224999999999994)"><text x="0" y="17.74541015625" font-family="Helvetica, Segoe UI Emoji" font-size="21px" fill="#cbd5e1" text-anchor="start" style="white-space: pre;" direction="ltr" dominant-baseline="alphabetic">OpenAI, Anthropic, Google AI,</text><text x="0" y="41.895410156249994" font-family="Helvetica, Segoe UI Emoji" font-size="21px" fill="#cbd5e1" text-anchor="start" style="white-space: pre;" direction="ltr" dominant-baseline="alphabetic">AWS Bedrock, or an</text><text x="0" y="66.04541015625" font-family="Helvetica, Segoe UI Emoji" font-size="21px" fill="#cbd5e1" text-anchor="start" style="white-space: pre;" direction="ltr" dominant-baseline="alphabetic">OpenAI-compatible endpoint</text></g><g transform="translate(959 544) rotate(0 158.759765625 13.800000000000011)"><text x="0" y="20.280468749999997" font-family="Helvetica, Segoe UI Emoji" font-size="24px" fill="#f8fafc" text-anchor="start" style="white-space: pre;" direction="ltr" dominant-baseline="alphabetic">Governance and observability</text></g><g transform="translate(959 586) rotate(0 115.57177734375 24.149999999999977)"><text x="0" y="17.74541015625" font-family="Helvetica, Segoe UI Emoji" font-size="21px" fill="#cbd5e1" text-anchor="start" style="white-space: pre;" direction="ltr" dominant-baseline="alphabetic">Cost, usage, and latency</text><text x="0" y="41.895410156249994" font-family="Helvetica, Segoe UI Emoji" font-size="21px" fill="#cbd5e1" text-anchor="start" style="white-space: pre;" direction="ltr" dominant-baseline="alphabetic">Optional transcripts</text></g></svg>