<svg version="1.1" xmlns="http://www.w3.org/2000/svg" viewBox="0 0 1380 820" width="1380" height="820"><!-- svg-source:excalidraw --><metadata/><defs><style class="style-fonts">
      </style></defs><rect x="0" y="0" width="1380" height="820" fill="#0f172a"/><g stroke-linecap="round" transform="translate(10 10) rotate(0 680 400)"><path d="M32 0 C395.76 0, 759.52 0, 1328 0 C1349.33 0, 1360 10.67, 1360 32 C1360 189.37, 1360 346.74, 1360 768 C1360 789.33, 1349.33 800, 1328 800 C1021.73 800, 715.45 800, 32 800 C10.67 800, 0 789.33, 0 768 C0 607.94, 0 447.88, 0 32 C0 10.67, 10.67 0, 32 0" stroke="none" stroke-width="0" fill="#0f172a"/><path d="M32 0 C464.94 0, 897.87 0, 1328 0 M32 0 C547 0, 1062 0, 1328 0 M1328 0 C1349.33 0, 1360 10.67, 1360 32 M1328 0 C1349.33 0, 1360 10.67, 1360 32 M1360 32 C1360 244.82, 1360 457.64, 1360 768 M1360 32 C1360 202.48, 1360 372.97, 1360 768 M1360 768 C1360 789.33, 1349.33 800, 1328 800 M1360 768 C1360 789.33, 1349.33 800, 1328 800 M1328 800 C968.15 800, 608.3 800, 32 800 M1328 800 C1027.85 800, 727.7 800, 32 800 M32 800 C10.67 800, 0 789.33, 0 768 M32 800 C10.67 800, 0 789.33, 0 768 M0 768 C0 581.19, 0 394.38, 0 32 M0 768 C0 534.59, 0 301.18, 0 32 M0 32 C0 10.67, 10.67 0, 32 0 M0 32 C0 10.67, 10.67 0, 32 0" stroke="#0f172a" stroke-width="1" fill="none"/></g><g stroke-linecap="round" transform="translate(55 170) rotate(0 150 105)"><path d="M32 0 C114.41 0, 196.81 0, 268 0 C289.33 0, 300 10.67, 300 32 C300 78.68, 300 125.35, 300 178 C300 199.33, 289.33 210, 268 210 C187.43 210, 106.85 210, 32 210 C10.67 210, 0 199.33, 0 178 C0 144.69, 0 111.38, 0 32 C0 10.67, 10.67 0, 32 0" stroke="none" stroke-width="0" fill="#1e293b"/><path d="M32 0 C89.31 0, 146.62 0, 268 0 M32 0 C81.27 0, 130.53 0, 268 0 M268 0 C289.33 0, 300 10.67, 300 32 M268 0 C289.33 0, 300 10.67, 300 32 M300 32 C300 79.32, 300 126.65, 300 178 M300 32 C300 78.96, 300 125.92, 300 178 M300 178 C300 199.33, 289.33 210, 268 210 M300 178 C300 199.33, 289.33 210, 268 210 M268 210 C179.56 210, 91.11 210, 32 210 M268 210 C196.49 210, 124.99 210, 32 210 M32 210 C10.67 210, 0 199.33, 0 178 M32 210 C10.67 210, 0 199.33, 0 178 M0 178 C0 120.07, 0 62.14, 0 32 M0 178 C0 141.5, 0 105, 0 32 M0 32 C0 10.67, 10.67 0, 32 0 M0 32 C0 10.67, 10.67 0, 32 0" stroke="#fac515" stroke-width="2" fill="none"/></g><g stroke-linecap="round" transform="translate(55 500) rotate(0 150 77.5)"><path d="M32 0 C82.22 0, 132.44 0, 268 0 C289.33 0, 300 10.67, 300 32 C300 55.01, 300 78.02, 300 123 C300 144.33, 289.33 155, 268 155 C202.42 155, 136.84 155, 32 155 C10.67 155, 0 144.33, 0 123 C0 98.27, 0 73.55, 0 32 C0 10.67, 10.67 0, 32 0" stroke="none" stroke-width="0" fill="#1e293b"/><path d="M32 0 C102.94 0, 173.87 0, 268 0 M32 0 C84.33 0, 136.66 0, 268 0 M268 0 C289.33 0, 300 10.67, 300 32 M268 0 C289.33 0, 300 10.67, 300 32 M300 32 C300 58.98, 300 85.96, 300 123 M300 32 C300 54.22, 300 76.44, 300 123 M300 123 C300 144.33, 289.33 155, 268 155 M300 123 C300 144.33, 289.33 155, 268 155 M268 155 C203.77 155, 139.54 155, 32 155 M268 155 C180.5 155, 92.99 155, 32 155 M32 155 C10.67 155, 0 144.33, 0 123 M32 155 C10.67 155, 0 144.33, 0 123 M0 123 C0 97.23, 0 71.46, 0 32 M0 123 C0 100.41, 0 77.82, 0 32 M0 32 C0 10.67, 10.67 0, 32 0 M0 32 C0 10.67, 10.67 0, 32 0" stroke="#38bdf8" stroke-width="2" fill="none"/></g><g stroke-linecap="round" transform="translate(405 500) rotate(0 150 77.5)"><path d="M32 0 C81.07 0, 130.14 0, 268 0 C289.33 0, 300 10.67, 300 32 C300 67.37, 300 102.74, 300 123 C300 144.33, 289.33 155, 268 155 C178.84 155, 89.68 155, 32 155 C10.67 155, 0 144.33, 0 123 C0 99.92, 0 76.83, 0 32 C0 10.67, 10.67 0, 32 0" stroke="none" stroke-width="0" fill="#1e293b"/><path d="M32 0 C84.34 0, 136.68 0, 268 0 M32 0 C105.74 0, 179.47 0, 268 0 M268 0 C289.33 0, 300 10.67, 300 32 M268 0 C289.33 0, 300 10.67, 300 32 M300 32 C300 63.12, 300 94.23, 300 123 M300 32 C300 52.42, 300 72.84, 300 123 M300 123 C300 144.33, 289.33 155, 268 155 M300 123 C300 144.33, 289.33 155, 268 155 M268 155 C175.59 155, 83.17 155, 32 155 M268 155 C201.92 155, 135.83 155, 32 155 M32 155 C10.67 155, 0 144.33, 0 123 M32 155 C10.67 155, 0 144.33, 0 123 M0 123 C0 98.58, 0 74.16, 0 32 M0 123 C0 95.43, 0 67.86, 0 32 M0 32 C0 10.67, 10.67 0, 32 0 M0 32 C0 10.67, 10.67 0, 32 0" stroke="#e24328" stroke-width="2" fill="none"/></g><g stroke-linecap="round" transform="translate(500 190) rotate(0 165 130)"><path d="M32 0 C95.51 0, 159.02 0, 298 0 C319.33 0, 330 10.67, 330 32 C330 83.4, 330 134.79, 330 228 C330 249.33, 319.33 260, 298 260 C229.63 260, 161.26 260, 32 260 C10.67 260, 0 249.33, 0 228 C0 157.92, 0 87.85, 0 32 C0 10.67, 10.67 0, 32 0" stroke="none" stroke-width="0" fill="#1e293b"/><path d="M32 0 C85.72 0, 139.44 0, 298 0 M32 0 C96.65 0, 161.31 0, 298 0 M298 0 C319.33 0, 330 10.67, 330 32 M298 0 C319.33 0, 330 10.67, 330 32 M330 32 C330 76.79, 330 121.58, 330 228 M330 32 C330 91.95, 330 151.9, 330 228 M330 228 C330 249.33, 319.33 260, 298 260 M330 228 C330 249.33, 319.33 260, 298 260 M298 260 C242.06 260, 186.12 260, 32 260 M298 260 C227.07 260, 156.14 260, 32 260 M32 260 C10.67 260, 0 249.33, 0 228 M32 260 C10.67 260, 0 249.33, 0 228 M0 228 C0 176.93, 0 125.87, 0 32 M0 228 C0 180.46, 0 132.91, 0 32 M0 32 C0 10.67, 10.67 0, 32 0 M0 32 C0 10.67, 10.67 0, 32 0" stroke="#6172f3" stroke-width="2" fill="none"/></g><g stroke-linecap="round" transform="translate(965 190) rotate(0 175 105)"><path d="M32 0 C131.67 0, 231.34 0, 318 0 C339.33 0, 350 10.67, 350 32 C350 73.16, 350 114.32, 350 178 C350 199.33, 339.33 210, 318 210 C247.39 210, 176.77 210, 32 210 C10.67 210, 0 199.33, 0 178 C0 139.34, 0 100.69, 0 32 C0 10.67, 10.67 0, 32 0" stroke="none" stroke-width="0" fill="#1e293b"/><path d="M32 0 C137.62 0, 243.23 0, 318 0 M32 0 C142.12 0, 252.25 0, 318 0 M318 0 C339.33 0, 350 10.67, 350 32 M318 0 C339.33 0, 350 10.67, 350 32 M350 32 C350 86.1, 350 140.21, 350 178 M350 32 C350 86.4, 350 140.8, 350 178 M350 178 C350 199.33, 339.33 210, 318 210 M350 178 C350 199.33, 339.33 210, 318 210 M318 210 C254.2 210, 190.41 210, 32 210 M318 210 C237.01 210, 156.01 210, 32 210 M32 210 C10.67 210, 0 199.33, 0 178 M32 210 C10.67 210, 0 199.33, 0 178 M0 178 C0 139.51, 0 101.02, 0 32 M0 178 C0 145.43, 0 112.87, 0 32 M0 32 C0 10.67, 10.67 0, 32 0 M0 32 C0 10.67, 10.67 0, 32 0" stroke="#2ed3ae" stroke-width="2" fill="none"/></g><g stroke-linecap="round" transform="translate(935 520) rotate(0 190 67.5)"><path d="M32 0 C140.14 0, 248.28 0, 348 0 C369.33 0, 380 10.67, 380 32 C380 52.29, 380 72.58, 380 103 C380 124.33, 369.33 135, 348 135 C254.86 135, 161.73 135, 32 135 C10.67 135, 0 124.33, 0 103 C0 87.24, 0 71.47, 0 32 C0 10.67, 10.67 0, 32 0" stroke="none" stroke-width="0" fill="#1e293b"/><path d="M32 0 C145.79 0, 259.57 0, 348 0 M32 0 C104.11 0, 176.22 0, 348 0 M348 0 C369.33 0, 380 10.67, 380 32 M348 0 C369.33 0, 380 10.67, 380 32 M380 32 C380 51.13, 380 70.26, 380 103 M380 32 C380 58.59, 380 85.17, 380 103 M380 103 C380 124.33, 369.33 135, 348 135 M380 103 C380 124.33, 369.33 135, 348 135 M348 135 C282.47 135, 216.95 135, 32 135 M348 135 C253.52 135, 159.04 135, 32 135 M32 135 C10.67 135, 0 124.33, 0 103 M32 135 C10.67 135, 0 124.33, 0 103 M0 103 C0 81.64, 0 60.27, 0 32 M0 103 C0 79.34, 0 55.68, 0 32 M0 32 C0 10.67, 10.67 0, 32 0 M0 32 C0 10.67, 10.67 0, 32 0" stroke="#f472b6" stroke-width="2" fill="none"/></g><g stroke-linecap="round"><g transform="translate(363.4619928053482 290.95280364400145) rotate(0 64.03800719465181 5.813500703824644)"><path d="M0 0 C50.89 4.62, 101.79 9.24, 128.08 11.63 M0 0 C39.53 3.59, 79.05 7.18, 128.08 11.63" stroke="#fac515" stroke-width="2" fill="none"/></g><g transform="translate(363.4619928053482 290.95280364400145) rotate(0 64.03800719465181 5.813500703824644)"><path d="M103.91 18.02 C113.51 15.48, 123.12 12.94, 128.08 11.63 M103.91 18.02 C111.37 16.05, 118.82 14.07, 128.08 11.63" stroke="#fac515" stroke-width="2" fill="none"/></g><g transform="translate(363.4619928053482 290.95280364400145) rotate(0 64.03800719465181 5.813500703824644)"><path d="M105.45 0.99 C114.44 5.22, 123.43 9.44, 128.08 11.63 M105.45 0.99 C112.43 4.27, 119.42 7.55, 128.08 11.63" stroke="#fac515" stroke-width="2" fill="none"/></g></g><mask/><g stroke-linecap="round"><g transform="translate(350.9272969162951 495.59232835663914) rotate(0 70.79600405457867 -39.41026313924783)"><path d="M0 0 C29.56 -16.45, 59.11 -32.91, 141.59 -78.82 M0 0 C55.43 -30.86, 110.86 -61.72, 141.59 -78.82" stroke="#38bdf8" stroke-width="2" fill="none"/></g><g transform="translate(350.9272969162951 495.59232835663914) rotate(0 70.79600405457867 -39.41026313924783)"><path d="M125.22 -59.92 C128.64 -63.87, 132.06 -67.81, 141.59 -78.82 M125.22 -59.92 C131.63 -67.32, 138.04 -74.72, 141.59 -78.82" stroke="#38bdf8" stroke-width="2" fill="none"/></g><g transform="translate(350.9272969162951 495.59232835663914) rotate(0 70.79600405457867 -39.41026313924783)"><path d="M116.91 -74.87 C122.06 -75.69, 127.21 -76.52, 141.59 -78.82 M116.91 -74.87 C126.57 -76.41, 136.23 -77.96, 141.59 -78.82" stroke="#38bdf8" stroke-width="2" fill="none"/></g></g><mask/><g stroke-linecap="round"><g transform="translate(591.7495279935279 492.1431503787869) rotate(0 7.036879773462431 -17.143150378786913)"><path d="M0 0 C3.12 -7.6, 6.24 -15.21, 14.07 -34.29 M0 0 C4.96 -12.07, 9.91 -24.14, 14.07 -34.29" stroke="#e24328" stroke-width="2" fill="none"/></g><g transform="translate(591.7495279935279 492.1431503787869) rotate(0 7.036879773462431 -17.143150378786913)"><path d="M13.32 -15.77 C13.49 -19.88, 13.66 -23.98, 14.07 -34.29 M13.32 -15.77 C13.59 -22.29, 13.85 -28.81, 14.07 -34.29" stroke="#e24328" stroke-width="2" fill="none"/></g><g transform="translate(591.7495279935279 492.1431503787869) rotate(0 7.036879773462431 -17.143150378786913)"><path d="M1.6 -20.58 C4.36 -23.62, 7.13 -26.66, 14.07 -34.29 M1.6 -20.58 C5.99 -25.41, 10.38 -30.23, 14.07 -34.29" stroke="#e24328" stroke-width="2" fill="none"/></g></g><mask/><g stroke-linecap="round"><g transform="translate(838.4889426346601 310.3953188087021) rotate(0 59.011057365339866 -2.6321609139652367)"><path d="M0 0 C36.88 -1.64, 73.75 -3.29, 118.02 -5.26 M0 0 C32.57 -1.45, 65.15 -2.91, 118.02 -5.26" stroke="#2ed3ae" stroke-width="2" fill="none"/></g><g transform="translate(838.4889426346601 310.3953188087021) rotate(0 59.011057365339866 -2.6321609139652367)"><path d="M94.93 4.32 C102.15 1.33, 109.36 -1.67, 118.02 -5.26 M94.93 4.32 C101.31 1.68, 107.68 -0.97, 118.02 -5.26" stroke="#2ed3ae" stroke-width="2" fill="none"/></g><g transform="translate(838.4889426346601 310.3953188087021) rotate(0 59.011057365339866 -2.6321609139652367)"><path d="M94.17 -12.76 C101.62 -10.42, 109.08 -8.08, 118.02 -5.26 M94.17 -12.76 C100.75 -10.69, 107.34 -8.62, 118.02 -5.26" stroke="#2ed3ae" stroke-width="2" fill="none"/></g></g><mask/><g stroke-linecap="round"><g transform="translate(837.4156776606342 420.4727038569992) rotate(0 82.0469391617957 47.50283962126164)"><path d="M0 0 C39.88 23.09, 79.77 46.18, 164.09 95.01 M0 0 C64.02 37.06, 128.03 74.13, 164.09 95.01" stroke="#f472b6" stroke-width="2" fill="none"/></g><g transform="translate(837.4156776606342 420.4727038569992) rotate(0 82.0469391617957 47.50283962126164)"><path d="M139.48 90.63 C145.46 91.7, 151.44 92.76, 164.09 95.01 M139.48 90.63 C149.08 92.34, 158.68 94.05, 164.09 95.01" stroke="#f472b6" stroke-width="2" fill="none"/></g><g transform="translate(837.4156776606342 420.4727038569992) rotate(0 82.0469391617957 47.50283962126164)"><path d="M148.05 75.84 C151.95 80.49, 155.85 85.15, 164.09 95.01 M148.05 75.84 C154.31 83.31, 160.57 90.79, 164.09 95.01" stroke="#f472b6" stroke-width="2" fill="none"/></g></g><mask/><g transform="translate(58 46) rotate(0 433.67431640625 19.549999999999997)"><text x="0" y="28.730664062499997" font-family="Helvetica, Segoe UI Emoji" font-size="34px" fill="#f8fafc" text-anchor="start" style="white-space: pre;" direction="ltr" dominant-baseline="alphabetic">AI Gateway separates client access from provider secrets</text></g><g transform="translate(60 98) rotate(0 398.0126953125 11.5)"><text x="0" y="16.900390625" font-family="Helvetica, Segoe UI Emoji" font-size="20px" fill="#cbd5e1" text-anchor="start" style="white-space: pre;" direction="ltr" dominant-baseline="alphabetic">Configure the upstream once; every local or deployed client uses the governed proxy path</text></g><g transform="translate(79 194) rotate(0 125.396484375 13.799999999999997)"><text x="0" y="20.280468749999997" font-family="Helvetica, Segoe UI Emoji" font-size="24px" fill="#f8fafc" text-anchor="start" style="white-space: pre;" direction="ltr" dominant-baseline="alphabetic">Configure LLM provider</text></g><g transform="translate(79 236) rotate(0 95.1357421875 48.30000000000001)"><text x="0" y="17.74541015625" font-family="Helvetica, Segoe UI Emoji" font-size="21px" fill="#cbd5e1" text-anchor="start" style="white-space: pre;" direction="ltr" dominant-baseline="alphabetic">Upstream endpoint</text><text x="0" y="41.895410156249994" font-family="Helvetica, Segoe UI Emoji" font-size="21px" fill="#cbd5e1" text-anchor="start" style="white-space: pre;" direction="ltr" dominant-baseline="alphabetic">Credential reference</text><text x="0" y="66.04541015625" font-family="Helvetica, Segoe UI Emoji" font-size="21px" fill="#cbd5e1" text-anchor="start" style="white-space: pre;" direction="ltr" dominant-baseline="alphabetic">Allowed models</text><text x="0" y="90.19541015624999" font-family="Helvetica, Segoe UI Emoji" font-size="21px" fill="#cbd5e1" text-anchor="start" style="white-space: pre;" direction="ltr" dominant-baseline="alphabetic">Optional guardrail</text></g><g transform="translate(79 524) rotate(0 84.7265625 13.800000000000011)"><text x="0" y="20.280468749999997" font-family="Helvetica, Segoe UI Emoji" font-size="24px" fill="#f8fafc" text-anchor="start" style="white-space: pre;" direction="ltr" dominant-baseline="alphabetic">Local developer</text></g><g transform="translate(79 566) rotate(0 99.806396484375 24.149999999999977)"><text x="0" y="17.74541015625" font-family="Helvetica, Segoe UI Emoji" font-size="21px" fill="#cbd5e1" text-anchor="start" style="white-space: pre;" direction="ltr" dominant-baseline="alphabetic">rpk ai sign-in and</text><text x="0" y="41.895410156249994" font-family="Helvetica, Segoe UI Emoji" font-size="21px" fill="#cbd5e1" text-anchor="start" style="white-space: pre;" direction="ltr" dominant-baseline="alphabetic">selected environment</text></g><g transform="translate(429 524) rotate(0 106.072265625 13.800000000000011)"><text x="0" y="20.280468749999997" font-family="Helvetica, Segoe UI Emoji" font-size="24px" fill="#f8fafc" text-anchor="start" style="white-space: pre;" direction="ltr" dominant-baseline="alphabetic">Application or agent</text></g><g transform="translate(429 566) rotate(0 110.890869140625 24.149999999999977)"><text x="0" y="17.74541015625" font-family="Helvetica, Segoe UI Emoji" font-size="21px" fill="#cbd5e1" text-anchor="start" style="white-space: pre;" direction="ltr" dominant-baseline="alphabetic">OAuth client credentials</text><text x="0" y="41.895410156249994" font-family="Helvetica, Segoe UI Emoji" font-size="21px" fill="#cbd5e1" text-anchor="start" style="white-space: pre;" direction="ltr" dominant-baseline="alphabetic">for deployed workloads</text></g><g transform="translate(524 214) rotate(0 62.02734375 13.799999999999997)"><text x="0" y="20.280468749999997" font-family="Helvetica, Segoe UI Emoji" font-size="24px" fill="#f8fafc" text-anchor="start" style="white-space: pre;" direction="ltr" dominant-baseline="alphabetic">AI Gateway</text></g><g transform="translate(524 256) rotate(0 131.89599609375 48.30000000000001)"><text x="0" y="17.74541015625" font-family="Helvetica, Segoe UI Emoji" font-size="21px" fill="#cbd5e1" text-anchor="start" style="white-space: pre;" direction="ltr" dominant-baseline="alphabetic">Authenticate caller</text><text x="0" y="41.895410156249994" font-family="Helvetica, Segoe UI Emoji" font-size="21px" fill="#cbd5e1" text-anchor="start" style="white-space: pre;" direction="ltr" dominant-baseline="alphabetic">Route native API</text><text x="0" y="66.04541015625" font-family="Helvetica, Segoe UI Emoji" font-size="21px" fill="#cbd5e1" text-anchor="start" style="white-space: pre;" direction="ltr" dominant-baseline="alphabetic">Apply policy and budgets</text><text x="0" y="90.19541015624999" font-family="Helvetica, Segoe UI Emoji" font-size="21px" fill="#cbd5e1" text-anchor="start" style="white-space: pre;" direction="ltr" dominant-baseline="alphabetic">Record tokens, cost, latency</text></g><g transform="translate(989 214) rotate(0 134.71875 13.799999999999997)"><text x="0" y="20.280468749999997" font-family="Helvetica, Segoe UI Emoji" font-size="24px" fill="#f8fafc" text-anchor="start" style="white-space: pre;" direction="ltr" dominant-baseline="alphabetic">Upstream model provider</text></g><g transform="translate(989 256) rotate(0 141.24755859375 36.224999999999994)"><text x="0" y="17.74541015625" font-family="Helvetica, Segoe UI Emoji" font-size="21px" fill="#cbd5e1" text-anchor="start" style="white-space: pre;" direction="ltr" dominant-baseline="alphabetic">OpenAI, Anthropic, Google AI,</text><text x="0" y="41.895410156249994" font-family="Helvetica, Segoe UI Emoji" font-size="21px" fill="#cbd5e1" text-anchor="start" style="white-space: pre;" direction="ltr" dominant-baseline="alphabetic">AWS Bedrock, or an</text><text x="0" y="66.04541015625" font-family="Helvetica, Segoe UI Emoji" font-size="21px" fill="#cbd5e1" text-anchor="start" style="white-space: pre;" direction="ltr" dominant-baseline="alphabetic">OpenAI-compatible endpoint</text></g><g transform="translate(959 544) rotate(0 158.759765625 13.800000000000011)"><text x="0" y="20.280468749999997" font-family="Helvetica, Segoe UI Emoji" font-size="24px" fill="#f8fafc" text-anchor="start" style="white-space: pre;" direction="ltr" dominant-baseline="alphabetic">Governance and observability</text></g><g transform="translate(959 586) rotate(0 97.663330078125 24.149999999999977)"><text x="0" y="17.74541015625" font-family="Helvetica, Segoe UI Emoji" font-size="21px" fill="#cbd5e1" text-anchor="start" style="white-space: pre;" direction="ltr" dominant-baseline="alphabetic">Cost and usage</text><text x="0" y="41.895410156249994" font-family="Helvetica, Segoe UI Emoji" font-size="21px" fill="#cbd5e1" text-anchor="start" style="white-space: pre;" direction="ltr" dominant-baseline="alphabetic">Transcripts and audit</text></g></svg>