<svg version="1.1" xmlns="http://www.w3.org/2000/svg" viewBox="0 0 1380 820" width="1380" height="820"><!-- svg-source:excalidraw --><metadata/><defs><style class="style-fonts">
      </style></defs><rect x="0" y="0" width="1380" height="820" fill="#0f172a"/><g stroke-linecap="round" transform="translate(10 10) rotate(0 680 400)"><path d="M32 0 C299.97 0, 567.93 0, 1328 0 C1349.33 0, 1360 10.67, 1360 32 C1360 242.67, 1360 453.34, 1360 768 C1360 789.33, 1349.33 800, 1328 800 C851.78 800, 375.56 800, 32 800 C10.67 800, 0 789.33, 0 768 C0 563.44, 0 358.88, 0 32 C0 10.67, 10.67 0, 32 0" stroke="none" stroke-width="0" fill="#0f172a"/><path d="M32 0 C530.47 0, 1028.93 0, 1328 0 M32 0 C506.45 0, 980.91 0, 1328 0 M1328 0 C1349.33 0, 1360 10.67, 1360 32 M1328 0 C1349.33 0, 1360 10.67, 1360 32 M1360 32 C1360 243.5, 1360 454.99, 1360 768 M1360 32 C1360 284.79, 1360 537.57, 1360 768 M1360 768 C1360 789.33, 1349.33 800, 1328 800 M1360 768 C1360 789.33, 1349.33 800, 1328 800 M1328 800 C841.82 800, 355.65 800, 32 800 M1328 800 C875.12 800, 422.24 800, 32 800 M32 800 C10.67 800, 0 789.33, 0 768 M32 800 C10.67 800, 0 789.33, 0 768 M0 768 C0 491.09, 0 214.17, 0 32 M0 768 C0 551.27, 0 334.53, 0 32 M0 32 C0 10.67, 10.67 0, 32 0 M0 32 C0 10.67, 10.67 0, 32 0" stroke="#0f172a" stroke-width="1" fill="none"/></g><g stroke-linecap="round" transform="translate(55 250) rotate(0 130 105)"><path d="M32 0 C97.25 0, 162.51 0, 228 0 C249.33 0, 260 10.67, 260 32 C260 65.06, 260 98.11, 260 178 C260 199.33, 249.33 210, 228 210 C179.17 210, 130.33 210, 32 210 C10.67 210, 0 199.33, 0 178 C0 145.23, 0 112.46, 0 32 C0 10.67, 10.67 0, 32 0" stroke="none" stroke-width="0" fill="#1e293b"/><path d="M32 0 C104.19 0, 176.38 0, 228 0 M32 0 C108.23 0, 184.45 0, 228 0 M228 0 C249.33 0, 260 10.67, 260 32 M228 0 C249.33 0, 260 10.67, 260 32 M260 32 C260 80.63, 260 129.26, 260 178 M260 32 C260 72.45, 260 112.9, 260 178 M260 178 C260 199.33, 249.33 210, 228 210 M260 178 C260 199.33, 249.33 210, 228 210 M228 210 C187.42 210, 146.83 210, 32 210 M228 210 C188.62 210, 149.25 210, 32 210 M32 210 C10.67 210, 0 199.33, 0 178 M32 210 C10.67 210, 0 199.33, 0 178 M0 178 C0 146.73, 0 115.45, 0 32 M0 178 C0 145.37, 0 112.74, 0 32 M0 32 C0 10.67, 10.67 0, 32 0 M0 32 C0 10.67, 10.67 0, 32 0" stroke="#38bdf8" stroke-width="2" fill="none"/></g><g stroke-linecap="round" transform="translate(390 200) rotate(0 150 155)"><path d="M32 0 C93.01 0, 154.02 0, 268 0 C289.33 0, 300 10.67, 300 32 C300 106.47, 300 180.94, 300 278 C300 299.33, 289.33 310, 268 310 C179.74 310, 91.47 310, 32 310 C10.67 310, 0 299.33, 0 278 C0 194.82, 0 111.65, 0 32 C0 10.67, 10.67 0, 32 0" stroke="none" stroke-width="0" fill="#1e293b"/><path d="M32 0 C88.04 0, 144.09 0, 268 0 M32 0 C112.63 0, 193.26 0, 268 0 M268 0 C289.33 0, 300 10.67, 300 32 M268 0 C289.33 0, 300 10.67, 300 32 M300 32 C300 100.86, 300 169.71, 300 278 M300 32 C300 124.58, 300 217.17, 300 278 M300 278 C300 299.33, 289.33 310, 268 310 M300 278 C300 299.33, 289.33 310, 268 310 M268 310 C213.32 310, 158.63 310, 32 310 M268 310 C197.14 310, 126.28 310, 32 310 M32 310 C10.67 310, 0 299.33, 0 278 M32 310 C10.67 310, 0 299.33, 0 278 M0 278 C0 204.93, 0 131.85, 0 32 M0 278 C0 226.63, 0 175.26, 0 32 M0 32 C0 10.67, 10.67 0, 32 0 M0 32 C0 10.67, 10.67 0, 32 0" stroke="#e24328" stroke-width="2" fill="none"/></g><g stroke-linecap="round" transform="translate(785 155) rotate(0 132.5 95)"><path d="M32 0 C79.21 0, 126.42 0, 233 0 C254.33 0, 265 10.67, 265 32 C265 58.16, 265 84.32, 265 158 C265 179.33, 254.33 190, 233 190 C160.99 190, 88.98 190, 32 190 C10.67 190, 0 179.33, 0 158 C0 113.52, 0 69.04, 0 32 C0 10.67, 10.67 0, 32 0" stroke="none" stroke-width="0" fill="#1e293b"/><path d="M32 0 C89.08 0, 146.16 0, 233 0 M32 0 C74.65 0, 117.31 0, 233 0 M233 0 C254.33 0, 265 10.67, 265 32 M233 0 C254.33 0, 265 10.67, 265 32 M265 32 C265 77.25, 265 122.49, 265 158 M265 32 C265 74.9, 265 117.79, 265 158 M265 158 C265 179.33, 254.33 190, 233 190 M265 158 C265 179.33, 254.33 190, 233 190 M233 190 C161.2 190, 89.4 190, 32 190 M233 190 C156.02 190, 79.04 190, 32 190 M32 190 C10.67 190, 0 179.33, 0 158 M32 190 C10.67 190, 0 179.33, 0 158 M0 158 C0 126.12, 0 94.25, 0 32 M0 158 C0 111.85, 0 65.7, 0 32 M0 32 C0 10.67, 10.67 0, 32 0 M0 32 C0 10.67, 10.67 0, 32 0" stroke="#6172f3" stroke-width="2" fill="none"/></g><g stroke-linecap="round" transform="translate(785 455) rotate(0 132.5 95)"><path d="M32 0 C73.51 0, 115.02 0, 233 0 C254.33 0, 265 10.67, 265 32 C265 60.53, 265 89.06, 265 158 C265 179.33, 254.33 190, 233 190 C170.7 190, 108.4 190, 32 190 C10.67 190, 0 179.33, 0 158 C0 117.2, 0 76.4, 0 32 C0 10.67, 10.67 0, 32 0" stroke="none" stroke-width="0" fill="#1e293b"/><path d="M32 0 C80.81 0, 129.62 0, 233 0 M32 0 C102.14 0, 172.28 0, 233 0 M233 0 C254.33 0, 265 10.67, 265 32 M233 0 C254.33 0, 265 10.67, 265 32 M265 32 C265 78.16, 265 124.31, 265 158 M265 32 C265 64.84, 265 97.67, 265 158 M265 158 C265 179.33, 254.33 190, 233 190 M265 158 C265 179.33, 254.33 190, 233 190 M233 190 C174.98 190, 116.97 190, 32 190 M233 190 C164.72 190, 96.44 190, 32 190 M32 190 C10.67 190, 0 179.33, 0 158 M32 190 C10.67 190, 0 179.33, 0 158 M0 158 C0 125.02, 0 92.05, 0 32 M0 158 C0 114.54, 0 71.07, 0 32 M0 32 C0 10.67, 10.67 0, 32 0 M0 32 C0 10.67, 10.67 0, 32 0" stroke="#fac515" stroke-width="2" fill="none"/></g><g stroke-linecap="round" transform="translate(1140 235) rotate(0 95 120)"><path d="M32 0 C67.1 0, 102.21 0, 158 0 C179.33 0, 190 10.67, 190 32 C190 77.01, 190 122.03, 190 208 C190 229.33, 179.33 240, 158 240 C126.14 240, 94.27 240, 32 240 C10.67 240, 0 229.33, 0 208 C0 171.52, 0 135.05, 0 32 C0 10.67, 10.67 0, 32 0" stroke="none" stroke-width="0" fill="#1e293b"/><path d="M32 0 C79.17 0, 126.34 0, 158 0 M32 0 C74.14 0, 116.29 0, 158 0 M158 0 C179.33 0, 190 10.67, 190 32 M158 0 C179.33 0, 190 10.67, 190 32 M190 32 C190 80.69, 190 129.38, 190 208 M190 32 C190 94.83, 190 157.67, 190 208 M190 208 C190 229.33, 179.33 240, 158 240 M190 208 C190 229.33, 179.33 240, 158 240 M158 240 C128.99 240, 99.98 240, 32 240 M158 240 C132.78 240, 107.57 240, 32 240 M32 240 C10.67 240, 0 229.33, 0 208 M32 240 C10.67 240, 0 229.33, 0 208 M0 208 C0 148.39, 0 88.78, 0 32 M0 208 C0 168.31, 0 128.62, 0 32 M0 32 C0 10.67, 10.67 0, 32 0 M0 32 C0 10.67, 10.67 0, 32 0" stroke="#2ed3ae" stroke-width="2" fill="none"/></g><g stroke-linecap="round" transform="translate(350 680) rotate(0 340 26)"><path d="M13 0 C245.38 0, 477.76 0, 667 0 C675.67 0, 680 4.33, 680 13 C680 19.52, 680 26.04, 680 39 C680 47.67, 675.67 52, 667 52 C503.34 52, 339.67 52, 13 52 C4.33 52, 0 47.67, 0 39 C0 30.87, 0 22.74, 0 13 C0 4.33, 4.33 0, 13 0" stroke="none" stroke-width="0" fill="#172033"/><path d="M13 0 C261.43 0, 509.86 0, 667 0 M13 0 C216.07 0, 419.14 0, 667 0 M667 0 C675.67 0, 680 4.33, 680 13 M667 0 C675.67 0, 680 4.33, 680 13 M680 13 C680 19.08, 680 25.15, 680 39 M680 13 C680 22.34, 680 31.68, 680 39 M680 39 C680 47.67, 675.67 52, 667 52 M680 39 C680 47.67, 675.67 52, 667 52 M667 52 C499.24 52, 331.48 52, 13 52 M667 52 C467 52, 267 52, 13 52 M13 52 C4.33 52, 0 47.67, 0 39 M13 52 C4.33 52, 0 47.67, 0 39 M0 39 C0 33.28, 0 27.56, 0 13 M0 39 C0 29.9, 0 20.8, 0 13 M0 13 C0 4.33, 4.33 0, 13 0 M0 13 C0 4.33, 4.33 0, 13 0" stroke="#f472b6" stroke-width="2" fill="none"/></g><g stroke-linecap="round"><g transform="translate(323.5 355) rotate(0 29 0)"><path d="M0 0 C21.23 0, 42.47 0, 58 0 M0 0 C12.96 0, 25.93 0, 58 0" stroke="#38bdf8" stroke-width="2" fill="none"/></g><g transform="translate(323.5 355) rotate(0 29 0)"><path d="M34.51 8.55 C43.11 5.42, 51.71 2.29, 58 0 M34.51 8.55 C39.76 6.64, 45.01 4.73, 58 0" stroke="#38bdf8" stroke-width="2" fill="none"/></g><g transform="translate(323.5 355) rotate(0 29 0)"><path d="M34.51 -8.55 C43.11 -5.42, 51.71 -2.29, 58 0 M34.51 -8.55 C39.76 -6.64, 45.01 -4.73, 58 0" stroke="#38bdf8" stroke-width="2" fill="none"/></g></g><mask/><g stroke-linecap="round"><g transform="translate(698.2074115601451 310.6343623475093) rotate(0 39.29258843985485 -10.568137181946383)"><path d="M0 0 C30.56 -8.22, 61.13 -16.44, 78.59 -21.14 M0 0 C18.31 -4.92, 36.62 -9.85, 78.59 -21.14" stroke="#6172f3" stroke-width="2" fill="none"/></g><g transform="translate(698.2074115601451 310.6343623475093) rotate(0 39.29258843985485 -10.568137181946383)"><path d="M58.12 -6.78 C66.08 -12.36, 74.04 -17.95, 78.59 -21.14 M58.12 -6.78 C62.89 -10.12, 67.66 -13.47, 78.59 -21.14" stroke="#6172f3" stroke-width="2" fill="none"/></g><g transform="translate(698.2074115601451 310.6343623475093) rotate(0 39.29258843985485 -10.568137181946383)"><path d="M53.68 -23.29 C63.36 -22.45, 73.05 -21.62, 78.59 -21.14 M53.68 -23.29 C59.48 -22.79, 65.28 -22.29, 78.59 -21.14" stroke="#6172f3" stroke-width="2" fill="none"/></g></g><mask/><g stroke-linecap="round"><g transform="translate(697.6077271582216 436.6549848896774) rotate(0 39.892272841778436 20.36488265999148)"><path d="M0 0 C27.26 13.92, 54.52 27.83, 79.78 40.73 M0 0 C21.61 11.03, 43.22 22.06, 79.78 40.73" stroke="#fac515" stroke-width="2" fill="none"/></g><g transform="translate(697.6077271582216 436.6549848896774) rotate(0 39.892272841778436 20.36488265999148)"><path d="M54.97 37.66 C63.45 38.71, 71.93 39.76, 79.78 40.73 M54.97 37.66 C61.69 38.49, 68.41 39.32, 79.78 40.73" stroke="#fac515" stroke-width="2" fill="none"/></g><g transform="translate(697.6077271582216 436.6549848896774) rotate(0 39.892272841778436 20.36488265999148)"><path d="M62.75 22.43 C68.57 28.68, 74.39 34.94, 79.78 40.73 M62.75 22.43 C67.36 27.39, 71.98 32.34, 79.78 40.73" stroke="#fac515" stroke-width="2" fill="none"/></g></g><mask/><g stroke-linecap="round"><g transform="translate(1058.0954258267113 296.83077074584156) rotate(0 36.904574173288665 11.870016655733224)"><path d="M0 0 C15.66 5.04, 31.33 10.08, 73.81 23.74 M0 0 C23.36 7.51, 46.72 15.03, 73.81 23.74" stroke="#2ed3ae" stroke-width="2" fill="none"/></g><g transform="translate(1058.0954258267113 296.83077074584156) rotate(0 36.904574173288665 11.870016655733224)"><path d="M48.83 24.69 C54.13 24.49, 59.43 24.28, 73.81 23.74 M48.83 24.69 C56.73 24.39, 64.64 24.09, 73.81 23.74" stroke="#2ed3ae" stroke-width="2" fill="none"/></g><g transform="translate(1058.0954258267113 296.83077074584156) rotate(0 36.904574173288665 11.870016655733224)"><path d="M54.06 8.41 C58.25 11.66, 62.44 14.91, 73.81 23.74 M54.06 8.41 C60.31 13.26, 66.56 18.11, 73.81 23.74" stroke="#2ed3ae" stroke-width="2" fill="none"/></g></g><mask/><g stroke-linecap="round"><g transform="translate(1057.3169498593018 463.93525914153116) rotate(0 37.68305014069824 -22.95100717302725)"><path d="M0 0 C26.3 -16.02, 52.6 -32.03, 75.37 -45.9 M0 0 C17.52 -10.67, 35.04 -21.34, 75.37 -45.9" stroke="#2ed3ae" stroke-width="2" fill="none"/></g><g transform="translate(1057.3169498593018 463.93525914153116) rotate(0 37.68305014069824 -22.95100717302725)"><path d="M59.75 -26.38 C65.2 -33.19, 70.65 -40, 75.37 -45.9 M59.75 -26.38 C63.38 -30.92, 67.01 -35.46, 75.37 -45.9" stroke="#2ed3ae" stroke-width="2" fill="none"/></g><g transform="translate(1057.3169498593018 463.93525914153116) rotate(0 37.68305014069824 -22.95100717302725)"><path d="M50.85 -40.98 C59.41 -42.7, 67.96 -44.42, 75.37 -45.9 M50.85 -40.98 C56.55 -42.13, 62.25 -43.27, 75.37 -45.9" stroke="#2ed3ae" stroke-width="2" fill="none"/></g></g><mask/><g transform="translate(58 46) rotate(0 430.88525390625 19.549999999999997)"><text x="0" y="28.730664062499997" font-family="Helvetica, Segoe UI Emoji" font-size="34px" fill="#f8fafc" text-anchor="start" style="white-space: pre;" direction="ltr" dominant-baseline="alphabetic">MCP Gateway gives every server one governed tool path</text></g><g transform="translate(60 98) rotate(0 504.1845703125 11.5)"><text x="0" y="16.900390625" font-family="Helvetica, Segoe UI Emoji" font-size="20px" fill="#cbd5e1" text-anchor="start" style="white-space: pre;" direction="ltr" dominant-baseline="alphabetic">Agents and external clients use the same discovery and call pattern across managed and self-managed backends</text></g><g transform="translate(79 274) rotate(0 64.67578125 13.800000000000011)"><text x="0" y="20.280468749999997" font-family="Helvetica, Segoe UI Emoji" font-size="24px" fill="#f8fafc" text-anchor="start" style="white-space: pre;" direction="ltr" dominant-baseline="alphabetic">MCP callers</text></g><g transform="translate(79 316) rotate(0 99.816650390625 36.224999999999994)"><text x="0" y="17.74541015625" font-family="Helvetica, Segoe UI Emoji" font-size="21px" fill="#cbd5e1" text-anchor="start" style="white-space: pre;" direction="ltr" dominant-baseline="alphabetic">Managed agents</text><text x="0" y="41.895410156249994" font-family="Helvetica, Segoe UI Emoji" font-size="21px" fill="#cbd5e1" text-anchor="start" style="white-space: pre;" direction="ltr" dominant-baseline="alphabetic">Self-managed agents</text><text x="0" y="66.04541015625" font-family="Helvetica, Segoe UI Emoji" font-size="21px" fill="#cbd5e1" text-anchor="start" style="white-space: pre;" direction="ltr" dominant-baseline="alphabetic">External MCP clients</text></g><g transform="translate(414 224) rotate(0 77.35546875 13.799999999999997)"><text x="0" y="20.280468749999997" font-family="Helvetica, Segoe UI Emoji" font-size="24px" fill="#f8fafc" text-anchor="start" style="white-space: pre;" direction="ltr" dominant-baseline="alphabetic">MCP Gateway</text></g><g transform="translate(414 266) rotate(0 108.542724609375 60.375)"><text x="0" y="17.74541015625" font-family="Helvetica, Segoe UI Emoji" font-size="21px" fill="#cbd5e1" text-anchor="start" style="white-space: pre;" direction="ltr" dominant-baseline="alphabetic">Authenticate identity</text><text x="0" y="41.895410156249994" font-family="Helvetica, Segoe UI Emoji" font-size="21px" fill="#cbd5e1" text-anchor="start" style="white-space: pre;" direction="ltr" dominant-baseline="alphabetic">Authorize tool access</text><text x="0" y="66.04541015625" font-family="Helvetica, Segoe UI Emoji" font-size="21px" fill="#cbd5e1" text-anchor="start" style="white-space: pre;" direction="ltr" dominant-baseline="alphabetic">Resolve upstream auth</text><text x="0" y="90.19541015624999" font-family="Helvetica, Segoe UI Emoji" font-size="21px" fill="#cbd5e1" text-anchor="start" style="white-space: pre;" direction="ltr" dominant-baseline="alphabetic">Apply data policies</text><text x="0" y="114.34541015625" font-family="Helvetica, Segoe UI Emoji" font-size="21px" fill="#cbd5e1" text-anchor="start" style="white-space: pre;" direction="ltr" dominant-baseline="alphabetic">Record calls and errors</text></g><g transform="translate(809 179) rotate(0 86.712890625 13.799999999999997)"><text x="0" y="20.280468749999997" font-family="Helvetica, Segoe UI Emoji" font-size="24px" fill="#f8fafc" text-anchor="start" style="white-space: pre;" direction="ltr" dominant-baseline="alphabetic">Managed server</text></g><g transform="translate(809 221) rotate(0 97.453125 24.150000000000006)"><text x="0" y="17.74541015625" font-family="Helvetica, Segoe UI Emoji" font-size="21px" fill="#cbd5e1" text-anchor="start" style="white-space: pre;" direction="ltr" dominant-baseline="alphabetic">Redpanda runs the</text><text x="0" y="41.895410156249994" font-family="Helvetica, Segoe UI Emoji" font-size="21px" fill="#cbd5e1" text-anchor="start" style="white-space: pre;" direction="ltr" dominant-baseline="alphabetic">MCP implementation</text></g><g transform="translate(809 479) rotate(0 111.38671875 13.800000000000011)"><text x="0" y="20.280468749999997" font-family="Helvetica, Segoe UI Emoji" font-size="24px" fill="#f8fafc" text-anchor="start" style="white-space: pre;" direction="ltr" dominant-baseline="alphabetic">Self-managed server</text></g><g transform="translate(809 521) rotate(0 99.447509765625 24.149999999999977)"><text x="0" y="17.74541015625" font-family="Helvetica, Segoe UI Emoji" font-size="21px" fill="#cbd5e1" text-anchor="start" style="white-space: pre;" direction="ltr" dominant-baseline="alphabetic">You run the endpoint;</text><text x="0" y="41.895410156249994" font-family="Helvetica, Segoe UI Emoji" font-size="21px" fill="#cbd5e1" text-anchor="start" style="white-space: pre;" direction="ltr" dominant-baseline="alphabetic">Redpanda fronts it</text></g><g transform="translate(1164 259) rotate(0 52.013671875 27.599999999999994)"><text x="0" y="20.280468749999997" font-family="Helvetica, Segoe UI Emoji" font-size="24px" fill="#f8fafc" text-anchor="start" style="white-space: pre;" direction="ltr" dominant-baseline="alphabetic">Upstream</text><text x="0" y="47.88046874999999" font-family="Helvetica, Segoe UI Emoji" font-size="24px" fill="#f8fafc" text-anchor="start" style="white-space: pre;" direction="ltr" dominant-baseline="alphabetic">systems</text></g><g transform="translate(1164 331) rotate(0 68.291015625 36.224999999999994)"><text x="0" y="17.74541015625" font-family="Helvetica, Segoe UI Emoji" font-size="21px" fill="#cbd5e1" text-anchor="start" style="white-space: pre;" direction="ltr" dominant-baseline="alphabetic">Databases</text><text x="0" y="41.895410156249994" font-family="Helvetica, Segoe UI Emoji" font-size="21px" fill="#cbd5e1" text-anchor="start" style="white-space: pre;" direction="ltr" dominant-baseline="alphabetic">APIs</text><text x="0" y="66.04541015625" font-family="Helvetica, Segoe UI Emoji" font-size="21px" fill="#cbd5e1" text-anchor="start" style="white-space: pre;" direction="ltr" dominant-baseline="alphabetic">Business apps</text></g><g transform="translate(368 693) rotate(0 291.2255859375 11.5)"><text x="0" y="16.900390625" font-family="Helvetica, Segoe UI Emoji" font-size="20px" fill="#f8fafc" text-anchor="start" style="white-space: pre;" direction="ltr" dominant-baseline="alphabetic">MCP discovery and JSON-RPC stay consistent across both paths</text></g></svg>