<svg version="1.1" xmlns="http://www.w3.org/2000/svg" viewBox="0 0 1380 820" width="1380" height="820"><!-- svg-source:excalidraw --><metadata/><defs><style class="style-fonts">
      </style></defs><rect x="0" y="0" width="1380" height="820" fill="#0f172a"/><g stroke-linecap="round" transform="translate(10 10) rotate(0 680 400)"><path d="M32 0 C465.09 0, 898.18 0, 1328 0 C1349.33 0, 1360 10.67, 1360 32 C1360 313.51, 1360 595.03, 1360 768 C1360 789.33, 1349.33 800, 1328 800 C882.36 800, 436.71 800, 32 800 C10.67 800, 0 789.33, 0 768 C0 615.78, 0 463.57, 0 32 C0 10.67, 10.67 0, 32 0" stroke="none" stroke-width="0" fill="#0f172a"/><path d="M32 0 C381.57 0, 731.13 0, 1328 0 M32 0 C369.02 0, 706.05 0, 1328 0 M1328 0 C1349.33 0, 1360 10.67, 1360 32 M1328 0 C1349.33 0, 1360 10.67, 1360 32 M1360 32 C1360 323.12, 1360 614.25, 1360 768 M1360 32 C1360 252.84, 1360 473.68, 1360 768 M1360 768 C1360 789.33, 1349.33 800, 1328 800 M1360 768 C1360 789.33, 1349.33 800, 1328 800 M1328 800 C836.54 800, 345.08 800, 32 800 M1328 800 C1018.73 800, 709.45 800, 32 800 M32 800 C10.67 800, 0 789.33, 0 768 M32 800 C10.67 800, 0 789.33, 0 768 M0 768 C0 582.72, 0 397.44, 0 32 M0 768 C0 590.78, 0 413.56, 0 32 M0 32 C0 10.67, 10.67 0, 32 0 M0 32 C0 10.67, 10.67 0, 32 0" stroke="#0f172a" stroke-width="1" fill="none"/></g><g stroke-linecap="round" transform="translate(40 245) rotate(0 95 95)"><path d="M32 0 C76.86 0, 121.73 0, 158 0 C179.33 0, 190 10.67, 190 32 C190 81.66, 190 131.31, 190 158 C190 179.33, 179.33 190, 158 190 C120.82 190, 83.63 190, 32 190 C10.67 190, 0 179.33, 0 158 C0 110.02, 0 62.05, 0 32 C0 10.67, 10.67 0, 32 0" stroke="none" stroke-width="0" fill="#1e293b"/><path d="M32 0 C59 0, 86.01 0, 158 0 M32 0 C64.89 0, 97.77 0, 158 0 M158 0 C179.33 0, 190 10.67, 190 32 M158 0 C179.33 0, 190 10.67, 190 32 M190 32 C190 63.74, 190 95.48, 190 158 M190 32 C190 57.8, 190 83.6, 190 158 M190 158 C190 179.33, 179.33 190, 158 190 M190 158 C190 179.33, 179.33 190, 158 190 M158 190 C129.88 190, 101.76 190, 32 190 M158 190 C126.5 190, 95.01 190, 32 190 M32 190 C10.67 190, 0 179.33, 0 158 M32 190 C10.67 190, 0 179.33, 0 158 M0 158 C0 119.38, 0 80.75, 0 32 M0 158 C0 114.45, 0 70.89, 0 32 M0 32 C0 10.67, 10.67 0, 32 0 M0 32 C0 10.67, 10.67 0, 32 0" stroke="#38bdf8" stroke-width="2" fill="none"/></g><g stroke-linecap="round" transform="translate(275 215) rotate(0 115 125)"><path d="M32 0 C92.43 0, 152.86 0, 198 0 C219.33 0, 230 10.67, 230 32 C230 71.79, 230 111.59, 230 218 C230 239.33, 219.33 250, 198 250 C152.05 250, 106.1 250, 32 250 C10.67 250, 0 239.33, 0 218 C0 166.82, 0 115.64, 0 32 C0 10.67, 10.67 0, 32 0" stroke="none" stroke-width="0" fill="#1e293b"/><path d="M32 0 C79.67 0, 127.34 0, 198 0 M32 0 C98.27 0, 164.54 0, 198 0 M198 0 C219.33 0, 230 10.67, 230 32 M198 0 C219.33 0, 230 10.67, 230 32 M230 32 C230 99.67, 230 167.35, 230 218 M230 32 C230 69.54, 230 107.07, 230 218 M230 218 C230 239.33, 219.33 250, 198 250 M230 218 C230 239.33, 219.33 250, 198 250 M198 250 C139.9 250, 81.8 250, 32 250 M198 250 C147.9 250, 97.8 250, 32 250 M32 250 C10.67 250, 0 239.33, 0 218 M32 250 C10.67 250, 0 239.33, 0 218 M0 218 C0 158.15, 0 98.31, 0 32 M0 218 C0 153.41, 0 88.82, 0 32 M0 32 C0 10.67, 10.67 0, 32 0 M0 32 C0 10.67, 10.67 0, 32 0" stroke="#e24328" stroke-width="2" fill="none"/></g><g stroke-linecap="round" transform="translate(550 245) rotate(0 110 95)"><path d="M32 0 C90.33 0, 148.66 0, 188 0 C209.33 0, 220 10.67, 220 32 C220 59.63, 220 87.27, 220 158 C220 179.33, 209.33 190, 188 190 C127.43 190, 66.86 190, 32 190 C10.67 190, 0 179.33, 0 158 C0 112.97, 0 67.95, 0 32 C0 10.67, 10.67 0, 32 0" stroke="none" stroke-width="0" fill="#1e293b"/><path d="M32 0 C67.53 0, 103.05 0, 188 0 M32 0 C76.71 0, 121.42 0, 188 0 M188 0 C209.33 0, 220 10.67, 220 32 M188 0 C209.33 0, 220 10.67, 220 32 M220 32 C220 63.24, 220 94.48, 220 158 M220 32 C220 65.42, 220 98.84, 220 158 M220 158 C220 179.33, 209.33 190, 188 190 M220 158 C220 179.33, 209.33 190, 188 190 M188 190 C154.29 190, 120.58 190, 32 190 M188 190 C148.86 190, 109.73 190, 32 190 M32 190 C10.67 190, 0 179.33, 0 158 M32 190 C10.67 190, 0 179.33, 0 158 M0 158 C0 112.34, 0 66.68, 0 32 M0 158 C0 124.91, 0 91.82, 0 32 M0 32 C0 10.67, 10.67 0, 32 0 M0 32 C0 10.67, 10.67 0, 32 0" stroke="#6172f3" stroke-width="2" fill="none"/></g><g stroke-linecap="round" transform="translate(815 215) rotate(0 115 125)"><path d="M32 0 C94.89 0, 157.78 0, 198 0 C219.33 0, 230 10.67, 230 32 C230 80.01, 230 128.02, 230 218 C230 239.33, 219.33 250, 198 250 C147.49 250, 96.98 250, 32 250 C10.67 250, 0 239.33, 0 218 C0 169.45, 0 120.9, 0 32 C0 10.67, 10.67 0, 32 0" stroke="none" stroke-width="0" fill="#1e293b"/><path d="M32 0 C95.04 0, 158.08 0, 198 0 M32 0 C79.47 0, 126.94 0, 198 0 M198 0 C219.33 0, 230 10.67, 230 32 M198 0 C219.33 0, 230 10.67, 230 32 M230 32 C230 94.86, 230 157.72, 230 218 M230 32 C230 80.25, 230 128.5, 230 218 M230 218 C230 239.33, 219.33 250, 198 250 M230 218 C230 239.33, 219.33 250, 198 250 M198 250 C145.27 250, 92.55 250, 32 250 M198 250 C155.98 250, 113.95 250, 32 250 M32 250 C10.67 250, 0 239.33, 0 218 M32 250 C10.67 250, 0 239.33, 0 218 M0 218 C0 144.3, 0 70.6, 0 32 M0 218 C0 154.39, 0 90.78, 0 32 M0 32 C0 10.67, 10.67 0, 32 0 M0 32 C0 10.67, 10.67 0, 32 0" stroke="#fac515" stroke-width="2" fill="none"/></g><g stroke-linecap="round" transform="translate(1090 245) rotate(0 122.5 95)"><path d="M32 0 C89.73 0, 147.46 0, 213 0 C234.33 0, 245 10.67, 245 32 C245 58.89, 245 85.77, 245 158 C245 179.33, 234.33 190, 213 190 C145.71 190, 78.41 190, 32 190 C10.67 190, 0 179.33, 0 158 C0 121.15, 0 84.31, 0 32 C0 10.67, 10.67 0, 32 0" stroke="none" stroke-width="0" fill="#1e293b"/><path d="M32 0 C85.09 0, 138.19 0, 213 0 M32 0 C86.08 0, 140.16 0, 213 0 M213 0 C234.33 0, 245 10.67, 245 32 M213 0 C234.33 0, 245 10.67, 245 32 M245 32 C245 66.74, 245 101.49, 245 158 M245 32 C245 70.39, 245 108.78, 245 158 M245 158 C245 179.33, 234.33 190, 213 190 M245 158 C245 179.33, 234.33 190, 213 190 M213 190 C167.63 190, 122.27 190, 32 190 M213 190 C148.12 190, 83.24 190, 32 190 M32 190 C10.67 190, 0 179.33, 0 158 M32 190 C10.67 190, 0 179.33, 0 158 M0 158 C0 127.28, 0 96.57, 0 32 M0 158 C0 119.5, 0 80.99, 0 32 M0 32 C0 10.67, 10.67 0, 32 0 M0 32 C0 10.67, 10.67 0, 32 0" stroke="#2ed3ae" stroke-width="2" fill="none"/></g><g stroke-linecap="round" transform="translate(260 570) rotate(0 130 62.5)"><path d="M31.25 0 C77.6 0, 123.96 0, 228.75 0 C249.58 0, 260 10.42, 260 31.25 C260 44.66, 260 58.07, 260 93.75 C260 114.58, 249.58 125, 228.75 125 C166.85 125, 104.95 125, 31.25 125 C10.42 125, 0 114.58, 0 93.75 C0 70.41, 0 47.07, 0 31.25 C0 10.42, 10.42 0, 31.25 0" stroke="none" stroke-width="0" fill="#1e293b"/><path d="M31.25 0 C103.7 0, 176.16 0, 228.75 0 M31.25 0 C86.61 0, 141.96 0, 228.75 0 M228.75 0 C249.58 0, 260 10.42, 260 31.25 M228.75 0 C249.58 0, 260 10.42, 260 31.25 M260 31.25 C260 49.58, 260 67.92, 260 93.75 M260 31.25 C260 45.62, 260 59.99, 260 93.75 M260 93.75 C260 114.58, 249.58 125, 228.75 125 M260 93.75 C260 114.58, 249.58 125, 228.75 125 M228.75 125 C172.99 125, 117.23 125, 31.25 125 M228.75 125 C173.83 125, 118.9 125, 31.25 125 M31.25 125 C10.42 125, 0 114.58, 0 93.75 M31.25 125 C10.42 125, 0 114.58, 0 93.75 M0 93.75 C0 70.69, 0 47.63, 0 31.25 M0 93.75 C0 76.88, 0 60, 0 31.25 M0 31.25 C0 10.42, 10.42 0, 31.25 0 M0 31.25 C0 10.42, 10.42 0, 31.25 0" stroke="#e24328" stroke-width="2" fill="none"/></g><g stroke-linecap="round" transform="translate(800 570) rotate(0 140 62.5)"><path d="M31.25 0 C94.51 0, 157.76 0, 248.75 0 C269.58 0, 280 10.42, 280 31.25 C280 45.16, 280 59.08, 280 93.75 C280 114.58, 269.58 125, 248.75 125 C164.76 125, 80.77 125, 31.25 125 C10.42 125, 0 114.58, 0 93.75 C0 74.94, 0 56.14, 0 31.25 C0 10.42, 10.42 0, 31.25 0" stroke="none" stroke-width="0" fill="#1e293b"/><path d="M31.25 0 C87.81 0, 144.37 0, 248.75 0 M31.25 0 C75.2 0, 119.14 0, 248.75 0 M248.75 0 C269.58 0, 280 10.42, 280 31.25 M248.75 0 C269.58 0, 280 10.42, 280 31.25 M280 31.25 C280 50, 280 68.76, 280 93.75 M280 31.25 C280 44.29, 280 57.33, 280 93.75 M280 93.75 C280 114.58, 269.58 125, 248.75 125 M280 93.75 C280 114.58, 269.58 125, 248.75 125 M248.75 125 C196.85 125, 144.94 125, 31.25 125 M248.75 125 C181.74 125, 114.73 125, 31.25 125 M31.25 125 C10.42 125, 0 114.58, 0 93.75 M31.25 125 C10.42 125, 0 114.58, 0 93.75 M0 93.75 C0 78.7, 0 63.65, 0 31.25 M0 93.75 C0 73.22, 0 52.68, 0 31.25 M0 31.25 C0 10.42, 10.42 0, 31.25 0 M0 31.25 C0 10.42, 10.42 0, 31.25 0" stroke="#fac515" stroke-width="2" fill="none"/></g><g stroke-linecap="round"><g transform="translate(238.5 340) rotate(0 14 0)"><path d="M0 0 C7.31 0, 14.62 0, 28 0 M0 0 C5.84 0, 11.67 0, 28 0" stroke="#38bdf8" stroke-width="2" fill="none"/></g><g transform="translate(238.5 340) rotate(0 14 0)"><path d="M14.84 4.79 C18.28 3.54, 21.71 2.29, 28 0 M14.84 4.79 C17.59 3.79, 20.33 2.79, 28 0" stroke="#38bdf8" stroke-width="2" fill="none"/></g><g transform="translate(238.5 340) rotate(0 14 0)"><path d="M14.84 -4.79 C18.28 -3.54, 21.71 -2.29, 28 0 M14.84 -4.79 C17.59 -3.79, 20.33 -2.79, 28 0" stroke="#38bdf8" stroke-width="2" fill="none"/></g></g><mask/><g stroke-linecap="round"><g transform="translate(513.5 340) rotate(0 14 0)"><path d="M0 0 C11.18 0, 22.36 0, 28 0 M0 0 C10.33 0, 20.67 0, 28 0" stroke="#e24328" stroke-width="2" fill="none"/></g><g transform="translate(513.5 340) rotate(0 14 0)"><path d="M14.84 4.79 C20.1 2.88, 25.35 0.97, 28 0 M14.84 4.79 C19.7 3.02, 24.55 1.25, 28 0" stroke="#e24328" stroke-width="2" fill="none"/></g><g transform="translate(513.5 340) rotate(0 14 0)"><path d="M14.84 -4.79 C20.1 -2.88, 25.35 -0.97, 28 0 M14.84 -4.79 C19.7 -3.02, 24.55 -1.25, 28 0" stroke="#e24328" stroke-width="2" fill="none"/></g></g><mask/><g stroke-linecap="round"><g transform="translate(778.5 340) rotate(0 14 0)"><path d="M0 0 C8.03 0, 16.05 0, 28 0 M0 0 C6.84 0, 13.67 0, 28 0" stroke="#6172f3" stroke-width="2" fill="none"/></g><g transform="translate(778.5 340) rotate(0 14 0)"><path d="M14.84 4.79 C18.61 3.42, 22.39 2.04, 28 0 M14.84 4.79 C18.06 3.62, 21.27 2.45, 28 0" stroke="#6172f3" stroke-width="2" fill="none"/></g><g transform="translate(778.5 340) rotate(0 14 0)"><path d="M14.84 -4.79 C18.61 -3.42, 22.39 -2.04, 28 0 M14.84 -4.79 C18.06 -3.62, 21.27 -2.45, 28 0" stroke="#6172f3" stroke-width="2" fill="none"/></g></g><mask/><g stroke-linecap="round"><g transform="translate(1053.5 340) rotate(0 14 0)"><path d="M0 0 C8.01 0, 16.01 0, 28 0 M0 0 C7.26 0, 14.53 0, 28 0" stroke="#2ed3ae" stroke-width="2" fill="none"/></g><g transform="translate(1053.5 340) rotate(0 14 0)"><path d="M14.84 4.79 C18.61 3.42, 22.37 2.05, 28 0 M14.84 4.79 C18.26 3.55, 21.67 2.3, 28 0" stroke="#2ed3ae" stroke-width="2" fill="none"/></g><g transform="translate(1053.5 340) rotate(0 14 0)"><path d="M14.84 -4.79 C18.61 -3.42, 22.37 -2.05, 28 0 M14.84 -4.79 C18.26 -3.55, 21.67 -2.3, 28 0" stroke="#2ed3ae" stroke-width="2" fill="none"/></g></g><mask/><g stroke-linecap="round"><g transform="translate(390 473.5) rotate(0 0 44)"><path d="M0 0 C0 26.29, 0 52.59, 0 88" stroke="#e24328" stroke-width="2.5" fill="none" stroke-dasharray="8 10"/></g><g transform="translate(390 473.5) rotate(0 0 44)"><path d="M-8.55 64.51 C-6 71.53, -3.44 78.55, 0 88" stroke="#e24328" stroke-width="2.5" fill="none"/></g><g transform="translate(390 473.5) rotate(0 0 44)"><path d="M8.55 64.51 C6 71.53, 3.44 78.55, 0 88" stroke="#e24328" stroke-width="2.5" fill="none"/></g></g><mask/><g stroke-linecap="round"><g transform="translate(935.0468488481271 473.49532880771795) rotate(0 1.0215272202490269 44.004671192282075)"><path d="M0 0 C0.57 24.67, 1.15 49.34, 2.04 88.01" stroke="#fac515" stroke-width="2.5" fill="none" stroke-dasharray="8 10"/></g><g transform="translate(935.0468488481271 473.49532880771795) rotate(0 1.0215272202490269 44.004671192282075)"><path d="M-7.05 64.72 C-4.5 71.25, -1.95 77.78, 2.04 88.01" stroke="#fac515" stroke-width="2.5" fill="none"/></g><g transform="translate(935.0468488481271 473.49532880771795) rotate(0 1.0215272202490269 44.004671192282075)"><path d="M10.05 64.32 C7.8 70.96, 5.56 77.6, 2.04 88.01" stroke="#fac515" stroke-width="2.5" fill="none"/></g></g><mask/><g transform="translate(58 46) rotate(0 343.9677734375 19.549999999999997)"><text x="0" y="28.730664062499997" font-family="Helvetica, Segoe UI Emoji" font-size="34px" fill="#f8fafc" text-anchor="start" style="white-space: pre;" direction="ltr" dominant-baseline="alphabetic">Guardrails evaluate both sides of a model call</text></g><g transform="translate(60 98) rotate(0 406.3232421875 11.5)"><text x="0" y="16.900390625" font-family="Helvetica, Segoe UI Emoji" font-size="20px" fill="#cbd5e1" text-anchor="start" style="white-space: pre;" direction="ltr" dominant-baseline="alphabetic">Input policies protect the model; output policies control what a non-streaming caller receives</text></g><g transform="translate(64 269) rotate(0 31.341796875 13.800000000000011)"><text x="0" y="20.280468749999997" font-family="Helvetica, Segoe UI Emoji" font-size="24px" fill="#f8fafc" text-anchor="start" style="white-space: pre;" direction="ltr" dominant-baseline="alphabetic">Caller</text></g><g transform="translate(64 311) rotate(0 33.843017578125 12.074999999999989)"><text x="0" y="17.74541015625" font-family="Helvetica, Segoe UI Emoji" font-size="21px" fill="#cbd5e1" text-anchor="start" style="white-space: pre;" direction="ltr" dominant-baseline="alphabetic">Prompt</text></g><g transform="translate(299 239) rotate(0 70.04296875 13.800000000000011)"><text x="0" y="20.280468749999997" font-family="Helvetica, Segoe UI Emoji" font-size="24px" fill="#f8fafc" text-anchor="start" style="white-space: pre;" direction="ltr" dominant-baseline="alphabetic">Input policies</text></g><g transform="translate(299 281) rotate(0 74.115234375 48.30000000000001)"><text x="0" y="17.74541015625" font-family="Helvetica, Segoe UI Emoji" font-size="21px" fill="#cbd5e1" text-anchor="start" style="white-space: pre;" direction="ltr" dominant-baseline="alphabetic">Harmful content</text><text x="0" y="41.895410156249994" font-family="Helvetica, Segoe UI Emoji" font-size="21px" fill="#cbd5e1" text-anchor="start" style="white-space: pre;" direction="ltr" dominant-baseline="alphabetic">Prompt attacks</text><text x="0" y="66.04541015625" font-family="Helvetica, Segoe UI Emoji" font-size="21px" fill="#cbd5e1" text-anchor="start" style="white-space: pre;" direction="ltr" dominant-baseline="alphabetic">Sensitive data</text><text x="0" y="90.19541015624999" font-family="Helvetica, Segoe UI Emoji" font-size="21px" fill="#cbd5e1" text-anchor="start" style="white-space: pre;" direction="ltr" dominant-baseline="alphabetic">Denied topics</text></g><g transform="translate(574 269) rotate(0 80.0390625 13.800000000000011)"><text x="0" y="20.280468749999997" font-family="Helvetica, Segoe UI Emoji" font-size="24px" fill="#f8fafc" text-anchor="start" style="white-space: pre;" direction="ltr" dominant-baseline="alphabetic">Bedrock model</text></g><g transform="translate(574 311) rotate(0 71.792724609375 24.150000000000006)"><text x="0" y="17.74541015625" font-family="Helvetica, Segoe UI Emoji" font-size="21px" fill="#cbd5e1" text-anchor="start" style="white-space: pre;" direction="ltr" dominant-baseline="alphabetic">Runs only after</text><text x="0" y="41.895410156249994" font-family="Helvetica, Segoe UI Emoji" font-size="21px" fill="#cbd5e1" text-anchor="start" style="white-space: pre;" direction="ltr" dominant-baseline="alphabetic">input is allowed</text></g><g transform="translate(839 239) rotate(0 79.376953125 13.800000000000011)"><text x="0" y="20.280468749999997" font-family="Helvetica, Segoe UI Emoji" font-size="24px" fill="#f8fafc" text-anchor="start" style="white-space: pre;" direction="ltr" dominant-baseline="alphabetic">Output policies</text></g><g transform="translate(839 281) rotate(0 89.3115234375 48.30000000000001)"><text x="0" y="17.74541015625" font-family="Helvetica, Segoe UI Emoji" font-size="21px" fill="#cbd5e1" text-anchor="start" style="white-space: pre;" direction="ltr" dominant-baseline="alphabetic">Harmful content</text><text x="0" y="41.895410156249994" font-family="Helvetica, Segoe UI Emoji" font-size="21px" fill="#cbd5e1" text-anchor="start" style="white-space: pre;" direction="ltr" dominant-baseline="alphabetic">Sensitive data</text><text x="0" y="66.04541015625" font-family="Helvetica, Segoe UI Emoji" font-size="21px" fill="#cbd5e1" text-anchor="start" style="white-space: pre;" direction="ltr" dominant-baseline="alphabetic">Grounding checks</text><text x="0" y="90.19541015624999" font-family="Helvetica, Segoe UI Emoji" font-size="21px" fill="#cbd5e1" text-anchor="start" style="white-space: pre;" direction="ltr" dominant-baseline="alphabetic">Reasoning findings</text></g><g transform="translate(1114 269) rotate(0 79.359375 13.800000000000011)"><text x="0" y="20.280468749999997" font-family="Helvetica, Segoe UI Emoji" font-size="24px" fill="#f8fafc" text-anchor="start" style="white-space: pre;" direction="ltr" dominant-baseline="alphabetic">Caller receives</text></g><g transform="translate(1114 311) rotate(0 86.384033203125 36.224999999999994)"><text x="0" y="17.74541015625" font-family="Helvetica, Segoe UI Emoji" font-size="21px" fill="#cbd5e1" text-anchor="start" style="white-space: pre;" direction="ltr" dominant-baseline="alphabetic">Allowed, redacted,</text><text x="0" y="41.895410156249994" font-family="Helvetica, Segoe UI Emoji" font-size="21px" fill="#cbd5e1" text-anchor="start" style="white-space: pre;" direction="ltr" dominant-baseline="alphabetic">or configured</text><text x="0" y="66.04541015625" font-family="Helvetica, Segoe UI Emoji" font-size="21px" fill="#cbd5e1" text-anchor="start" style="white-space: pre;" direction="ltr" dominant-baseline="alphabetic">blocked response</text></g><g transform="translate(284 594) rotate(0 72.046875 13.800000000000011)"><text x="0" y="20.280468749999997" font-family="Helvetica, Segoe UI Emoji" font-size="24px" fill="#f8fafc" text-anchor="start" style="white-space: pre;" direction="ltr" dominant-baseline="alphabetic">Blocked input</text></g><g transform="translate(284 636) rotate(0 86.96337890625 12.074999999999989)"><text x="0" y="17.74541015625" font-family="Helvetica, Segoe UI Emoji" font-size="21px" fill="#cbd5e1" text-anchor="start" style="white-space: pre;" direction="ltr" dominant-baseline="alphabetic">Model is not called</text></g><g transform="translate(824 594) rotate(0 79.388671875 13.800000000000011)"><text x="0" y="20.280468749999997" font-family="Helvetica, Segoe UI Emoji" font-size="24px" fill="#f8fafc" text-anchor="start" style="white-space: pre;" direction="ltr" dominant-baseline="alphabetic">Blocked output</text></g><g transform="translate(824 636) rotate(0 74.7099609375 24.149999999999977)"><text x="0" y="17.74541015625" font-family="Helvetica, Segoe UI Emoji" font-size="21px" fill="#cbd5e1" text-anchor="start" style="white-space: pre;" direction="ltr" dominant-baseline="alphabetic">Model response</text><text x="0" y="41.895410156249994" font-family="Helvetica, Segoe UI Emoji" font-size="21px" fill="#cbd5e1" text-anchor="start" style="white-space: pre;" direction="ltr" dominant-baseline="alphabetic">is withheld</text></g></svg>